<?xml version="1.0" encoding="UTF-8"?>
<svg width="24px" height="24px" viewBox="0 0 24 24" version="1.1" xmlns="http://www.w3.org/2000/svg" xmlns:xlink="http://www.w3.org/1999/xlink">
    <!-- Generator: Sketch 57.1 (83088) - https://sketch.com -->
    <title>pin_off/round</title>
    <desc>Created with Sketch.</desc>
    <g id="pin_off/round" stroke="none" stroke-width="1" fill="none" fill-rule="evenodd">
        <path d="M9,9 L16,16 L13,16 L13,20 L12,23 L11,20 L11,16 L7,16 C6.44771525,16 6,15.5522847 6,15 L6,13.4142136 C6,13.1489971 6.10535684,12.8946432 6.29289322,12.7071068 L9,10 L9,9 Z M16,2 C16.5522847,2 17,2.44771525 17,3 L17,3.38196601 C17,3.76073807 16.7859976,4.10700119 16.4472136,4.2763932 L15,5 L15,10 L17.7071068,12.7071068 C17.8946432,12.8946432 18,13.1489971 18,13.4142136 L18,15 C18,15.1357507 17.9729505,15.2651836 17.9239472,15.3832029 L12.27,9.73 L9,6.46 L9,5 L7.5527864,4.2763932 C7.21400238,4.10700119 7,3.76073807 7,3.38196601 L7,3 C7,2.44771525 7.44771525,2 8,2 L16,2 Z" id="Combined-Shape" fill="#000000" fill-rule="nonzero"></path>
        <path d="M1.635,2.905 C1.28429918,3.25570082 1.28429918,3.82429918 1.635,4.175 L19.825,22.365 C20.1757008,22.7157008 20.7442992,22.7157008 21.095,22.365 C21.4457008,22.0142992 21.4457008,21.4457008 21.095,21.095 L11,11 L2.905,2.905 C2.55429918,2.55429918 1.98570082,2.55429918 1.635,2.905 Z" id="line" fill="#000000" fill-rule="nonzero"></path>
    </g>
</svg>