<?xml version="1.0" encoding="UTF-8"?>
<svg width="24px" height="24px" viewBox="0 0 24 24" version="1.1" xmlns="http://www.w3.org/2000/svg" xmlns:xlink="http://www.w3.org/1999/xlink">
    <!-- Generator: Sketch 57.1 (83088) - https://sketch.com -->
    <title>pin_off/twotone</title>
    <desc>Created with Sketch.</desc>
    <g id="pin_off/twotone" stroke="none" stroke-width="1" fill="none" fill-rule="evenodd">
        <path d="M9.644,12.184 L11.461,14 L8,14 L8,13.8284271 L9.644,12.184 Z M13,4 L13,10.46 L12.27,9.73 L11,8.46 L11,4 L13,4 Z" id="Combined-Shape" fill="#000000" fill-rule="nonzero" opacity="0.300000012"></path>
        <path d="M9,9 L10.914,10.914 L8,13.8284271 L8,14 L14,14 L16,16 L13,16 L13,20 L12,23 L11,20 L11,16 L6,16 L6,13 L9,10 L9,9 Z M17,2 L17,4 L15,5 L15,10 L18,13 L18,15.461 L13,10.46 L13,4 L11,4 L11,8.46 L9,6.46 L9,5 L7,4 L7,2 L17,2 Z" id="Rectangle-Copy" fill="#000000" fill-rule="nonzero"></path>
        <polygon id="line" fill="#000000" fill-rule="nonzero" points="2.27 2.27 1 3.54 20.46 23 21.73 21.73 11 11"></polygon>
    </g>
</svg>