<?xml version="1.0" encoding="UTF-8"?>
<svg width="24px" height="24px" viewBox="0 0 24 24" version="1.1" xmlns="http://www.w3.org/2000/svg" xmlns:xlink="http://www.w3.org/1999/xlink">
    <!-- Generator: Sketch 57.1 (83088) - https://sketch.com -->
    <title>greater_than_equal/round</title>
    <desc>Created with Sketch.</desc>
    <g id="greater_than_equal/round" stroke="none" stroke-width="1" fill="none" fill-rule="evenodd">
        <path d="M7.25,15 L14.7507148,9.99952346 L14.7507148,9.99952346 L7.25003999,4.99994002 C6.83583747,4.72385285 6.72387285,4.1642625 6.99996002,3.75005998 C6.99997334,3.75003999 6.99998667,3.75001999 7,3.75 C7.27614237,3.33578644 7.83578644,3.22385763 8.25,3.5 L16.7519246,9.16794971 C17.2114532,9.47430216 17.3356271,10.0951715 17.0292747,10.5547002 C16.9560398,10.6645525 16.8617768,10.7588154 16.7519246,10.8320503 L8.25,16.5 C7.83578644,16.7761424 7.27614237,16.6642136 7,16.25 C6.72385763,15.8357864 6.83578644,15.2761424 7.25,15 Z" id="Path" fill="#000000"></path>
        <path d="M17,20.998 L7,20.998 C6.44771525,20.998 6,20.5502847 6,19.998 C6,19.4457153 6.44771525,18.998 7,18.998 L17,18.998 C17.5522847,18.998 18,19.4457153 18,19.998 C18,20.5502847 17.5522847,20.998 17,20.998 Z" id="Icon-Path-Copy" fill="#000000" fill-rule="nonzero"></path>
    </g>
</svg>