<?xml version="1.0" encoding="UTF-8"?>
<svg width="24px" height="24px" viewBox="0 0 24 24" version="1.1" xmlns="http://www.w3.org/2000/svg" xmlns:xlink="http://www.w3.org/1999/xlink">
    <!-- Generator: Sketch 57.1 (83088) - https://sketch.com -->
    <title>plus_minus_alt/round</title>
    <desc>Created with Sketch.</desc>
    <g id="plus_minus_alt/round" stroke="none" stroke-width="1" fill="none" fill-rule="evenodd">
        <path d="M11,7.998 L8,7.998 L8,7.998 L8,10.998 C8,11.5502847 7.55228475,11.998 7,11.998 C6.44771525,11.998 6,11.5502847 6,10.998 L6,7.998 L6,7.998 L3,7.998 C2.44771525,7.998 2,7.55028475 2,6.998 C2,6.44571525 2.44771525,5.998 3,5.998 L6,5.998 L6,5.998 L6,2.998 C6,2.44571525 6.44771525,1.998 7,1.998 C7.55228475,1.998 8,2.44571525 8,2.998 L8,5.998 L8,5.998 L11,5.998 C11.5522847,5.998 12,6.44571525 12,6.998 C12,7.55028475 11.5522847,7.998 11,7.998 Z" id="Icon-Path" fill="#000000" fill-rule="nonzero"></path>
        <path d="M21,17.998 L15,17.998 C14.4477153,17.998 14,17.5502847 14,16.998 C14,16.4457153 14.4477153,15.998 15,15.998 L21,15.998 C21.5522847,15.998 22,16.4457153 22,16.998 C22,17.5502847 21.5522847,17.998 21,17.998 Z" id="Icon-Path-Copy" fill="#000000" fill-rule="nonzero"></path>
        <path d="M17.7928932,4.70710678 L4.70710678,17.7928932 C4.31658249,18.1834175 4.31658249,18.8165825 4.70710678,19.2071068 L4.79289322,19.2928932 C5.18341751,19.6834175 5.81658249,19.6834175 6.20710678,19.2928932 L19.2928932,6.20710678 C19.6834175,5.81658249 19.6834175,5.18341751 19.2928932,4.79289322 L19.2071068,4.70710678 C18.8165825,4.31658249 18.1834175,4.31658249 17.7928932,4.70710678 Z" id="Icon-Path" fill="#000000" fill-rule="nonzero"></path>
    </g>
</svg>