<?xml version="1.0" encoding="UTF-8"?>
<svg width="24px" height="24px" viewBox="0 0 24 24" version="1.1" xmlns="http://www.w3.org/2000/svg" xmlns:xlink="http://www.w3.org/1999/xlink">
    <!-- Generator: Sketch 53.2 (72643) - https://sketchapp.com -->
    <title>outline-log_in</title>
    <desc>Created with Sketch.</desc>
    <g id="outline-log_in" stroke="none" stroke-width="1" fill="none" fill-rule="evenodd">
        <path d="M9,2 L18,2 C19.1,2 20,2.9 20,4 L20,20 C20,21.1 19.1,22 18,22 L9,22 C7.9,22 7,21.1 7,20 L7,18 L9,18 L9,20 L18,20 L18,4 L9,4 L9,6 L7,6 L7,4 C7,2.9 7.9,2 9,2 Z" id="Icon-Path" fill="#000000" fill-rule="nonzero"></path>
        <polygon id="Icon-Path" fill="#000000" fill-rule="nonzero" points="10.09 15.59 11.5 17 16.5 12 11.5 7 10.09 8.41 12.67 11 3 11 3 13 12.67 13"></polygon>
    </g>
</svg>