<?xml version="1.0" encoding="UTF-8"?>
<svg width="24px" height="24px" viewBox="0 0 24 24" version="1.1" xmlns="http://www.w3.org/2000/svg" xmlns:xlink="http://www.w3.org/1999/xlink">
    <!-- Generator: Sketch 53.2 (72643) - https://sketchapp.com -->
    <title>round-log_in</title>
    <desc>Created with Sketch.</desc>
    <g id="round-log_in" stroke="none" stroke-width="1" fill="none" fill-rule="evenodd">
        <path d="M9,2 L18,2 C19.1,2 20,2.9 20,4 L20,20 C20,21.1 19.1,22 18,22 L9,22 C7.9,22 7,21.1 7,20 L7,19 C7,18.4477153 7.44771525,18 8,18 L8,18 C8.55228475,18 9,18.4477153 9,19 L9,20 L18,20 L18,4 L9,4 L9,5 C9,5.55228475 8.55228475,6 8,6 L8,6 C7.44771525,6 7,5.55228475 7,5 L7,4 C7,2.9 7.9,2 9,2 Z" id="Icon-Path" fill="#000000" fill-rule="nonzero"></path>
        <path d="M10.795,16.295 L10.795,16.295 C11.1843607,16.6843607 11.8156393,16.6843607 12.205,16.295 L15.7928932,12.7071068 C16.1834175,12.3165825 16.1834175,11.6834175 15.7928932,11.2928932 L12.205,7.705 C11.8156393,7.31563925 11.1843607,7.31563925 10.795,7.705 L10.795,7.705 C10.4054189,8.09458114 10.4048082,8.72602837 10.793635,9.11636232 L12.67,11 L4,11 C3.44771525,11 3,11.4477153 3,12 L3,12 C3,12.5522847 3.44771525,13 4,13 L12.67,13 L10.793635,14.8836377 C10.4048082,15.2739716 10.4054189,15.9054189 10.795,16.295 Z" id="Icon-Path" fill="#000000" fill-rule="nonzero"></path>
    </g>
</svg>