<?xml version="1.0" encoding="UTF-8"?>
<svg width="24px" height="24px" viewBox="0 0 24 24" version="1.1" xmlns="http://www.w3.org/2000/svg" xmlns:xlink="http://www.w3.org/1999/xlink">
    <!-- Generator: Sketch 57.1 (83088) - https://sketch.com -->
    <title>divide/baseline</title>
    <desc>Created with Sketch.</desc>
    <g id="divide/baseline" stroke="none" stroke-width="1" fill="none" fill-rule="evenodd">
        <polygon id="Rectangle" fill="#000000" fill-rule="nonzero" points="5 11 19 11 19 13 5 13"></polygon>
        <path d="M12.002,3.99999849 C11.2874686,3.99928497 10.6268332,4.37982266 10.2689488,4.9982677 C9.91106428,5.61671274 9.91030188,6.37910863 10.2669488,6.99826821 C10.6235956,7.61742778 11.2834686,7.99928598 11.998,7.99999849 C13.1025698,8.00110508 13.9988959,7.10656978 13.9999985,6.002 C14.0011051,4.89743023 13.1065698,4.00110407 12.002,3.99999849 Z" id="Icon-Path" fill="#000000" fill-rule="nonzero"></path>
        <path d="M12.002,15.9999985 C11.2874686,15.999285 10.6268332,16.3798226 10.2689487,16.9982677 C9.91106421,17.6167127 9.91030182,18.3791086 10.2669487,18.9982682 C10.6235956,19.6174278 11.2834686,19.999286 11.998,19.9999985 C13.1025697,20.0011051 13.9988959,19.1065698 13.9999984,18.002 C14.001105,16.8974302 13.1065697,16.0011041 12.002,15.9999985 L12.002,15.9999985 Z" id="Icon-Path" fill="#000000" fill-rule="nonzero"></path>
    </g>
</svg>