<?xml version="1.0" encoding="UTF-8"?>
<svg width="24px" height="24px" viewBox="0 0 24 24" version="1.1" xmlns="http://www.w3.org/2000/svg" xmlns:xlink="http://www.w3.org/1999/xlink">
    <!-- Generator: Sketch 57.1 (83088) - https://sketch.com -->
    <title>divide/twotone</title>
    <desc>Created with Sketch.</desc>
    <g id="divide/twotone" stroke="none" stroke-width="1" fill="none" fill-rule="evenodd">
        <polygon id="Rectangle" fill="#000000" fill-rule="nonzero" points="3 11 21 11 21 13 3 13"></polygon>
        <circle id="Oval" fill="#000000" fill-rule="nonzero" opacity="0.300000012" cx="12" cy="6" r="1"></circle>
        <circle id="Oval" fill="#000000" fill-rule="nonzero" opacity="0.300000012" cx="12" cy="18" r="1"></circle>
        <path d="M12.003,2.99999849 C13.6598542,3.00165685 15.0016569,4.34614575 14.9999985,6.003 C14.9983431,7.65985425 13.6538542,9.00165685 11.997,8.99999849 C10.9252032,8.9989282 9.93539397,8.42614105 9.40042379,7.49740192 C8.86545361,6.5686628 8.8665972,5.42506926 9.40342379,4.49740192 C9.94025038,3.56973459 10.9312032,2.9989282 12.003,2.99999849 Z M12,5 C11.4477153,5 11,5.44771525 11,6 C11,6.55228475 11.4477153,7 12,7 C12.5522847,7 13,6.55228475 13,6 C13,5.44771525 12.5522847,5 12,5 Z" id="Combined-Shape" fill="#000000" fill-rule="nonzero"></path>
        <path d="M12.003,14.9999985 C13.6598542,15.0016569 15.0016568,16.3461458 14.9999984,18.003 C14.9983431,19.6598542 13.6538542,21.0016568 11.997,20.9999985 C10.9252032,20.9989282 9.93539393,20.4261411 9.40042374,19.4974019 C8.86545354,18.5686628 8.86659713,17.4250692 9.40342374,16.4974019 C9.94025034,15.5697346 10.9312032,14.9989282 12.003,14.9999985 Z M12,17 C11.4477153,17 11,17.4477153 11,18 C11,18.5522847 11.4477153,19 12,19 C12.5522847,19 13,18.5522847 13,18 C13,17.4477153 12.5522847,17 12,17 Z" id="Combined-Shape" fill="#000000" fill-rule="nonzero"></path>
    </g>
</svg>