<?xml version="1.0" encoding="UTF-8"?>
<svg width="24px" height="24px" viewBox="0 0 24 24" version="1.1" xmlns="http://www.w3.org/2000/svg" xmlns:xlink="http://www.w3.org/1999/xlink">
    <!-- Generator: Sketch Beta 54 (76408) - https://sketchapp.com -->
    <title>baseline-sentiment_neutral</title>
    <desc>Created with Sketch Beta.</desc>
    <g id="baseline-sentiment_neutral" stroke="none" stroke-width="1" fill="none" fill-rule="evenodd">
        <path d="M11.99,2 C17.52,2 22,6.48 22,12 C22,17.52 17.52,22 11.99,22 C6.47,22 2,17.52 2,12 C2,6.48 6.47,2 11.99,2 Z M9,14 L9,15.5 L15,15.5 L15,14 L9,14 Z M15.5,11 C16.3284271,11 17,10.3284271 17,9.5 C17,8.67157288 16.3284271,8 15.5,8 C14.6715729,8 14,8.67157288 14,9.5 C14,10.3284271 14.6715729,11 15.5,11 Z M8.5,11 C9.32842712,11 10,10.3284271 10,9.5 C10,8.67157288 9.32842712,8 8.5,8 C7.67157288,8 7,8.67157288 7,9.5 C7,10.3284271 7.67157288,11 8.5,11 Z" id="Combined-Shape" fill="#000000" fill-rule="nonzero"></path>
    </g>
</svg>