<?xml version="1.0" encoding="UTF-8"?>
<svg width="24px" height="24px" viewBox="0 0 24 24" version="1.1" xmlns="http://www.w3.org/2000/svg" xmlns:xlink="http://www.w3.org/1999/xlink">
    <!-- Generator: Sketch Beta 54 (76408) - https://sketchapp.com -->
    <title>round-sentiment_satisfied</title>
    <desc>Created with Sketch Beta.</desc>
    <g id="round-sentiment_satisfied" stroke="none" stroke-width="1" fill="none" fill-rule="evenodd">
        <path d="M11.99,2 C6.47,2 2,6.48 2,12 C2,17.52 6.47,22 11.99,22 C17.52,22 22,17.52 22,12 C22,6.48 17.52,2 11.99,2 Z M12,20 C7.58,20 4,16.42 4,12 C4,7.58 7.58,4 12,4 C16.42,4 20,7.58 20,12 C20,16.42 16.42,20 12,20 Z M9.67658116,15.8954764 C9.87853334,15.6765472 10.2246913,15.5884094 10.5247975,15.7198071 C10.976464,15.904006 11.4669,16 12,16 C12.5421253,16 13.0401297,15.9007282 13.5022048,15.7062802 C13.8075409,15.589386 14.1525602,15.6706547 14.3592533,15.9112683 C14.6866455,16.2923889 14.5312003,16.8969727 14.0703785,17.094701 C12.7503232,17.6332203 11.2689746,17.636448 9.94667769,17.1038457 C9.51225281,16.9169464 9.27259827,16.3334198 9.67658116,15.8954764 Z M15.5,11 C14.6715729,11 14,10.3284271 14,9.5 C14,8.67157288 14.6715729,8 15.5,8 C16.3284271,8 17,8.67157288 17,9.5 C17,10.3284271 16.3284271,11 15.5,11 Z M8.5,11 C7.67157288,11 7,10.3284271 7,9.5 C7,8.67157288 7.67157288,8 8.5,8 C9.32842712,8 10,8.67157288 10,9.5 C10,10.3284271 9.32842712,11 8.5,11 Z" id="Icon-Shape" fill="#000000" fill-rule="nonzero"></path>
    </g>
</svg>