<?xml version="1.0" encoding="UTF-8"?>
<svg width="24px" height="24px" viewBox="0 0 24 24" version="1.1" xmlns="http://www.w3.org/2000/svg" xmlns:xlink="http://www.w3.org/1999/xlink">
    <!-- Generator: Sketch Beta 54 (76408) - https://sketchapp.com -->
    <title>baseline-mood</title>
    <desc>Created with Sketch Beta.</desc>
    <g id="baseline-mood" stroke="none" stroke-width="1" fill="none" fill-rule="evenodd">
        <path d="M11.99,2 C17.52,2 22,6.48 22,12 C22,17.52 17.52,22 11.99,22 C6.47,22 2,17.52 2,12 C2,6.48 6.47,2 11.99,2 Z M15.5,11 C16.33,11 17,10.33 17,9.5 C17,8.67 16.33,8 15.5,8 C14.67,8 14,8.67 14,9.5 C14,10.33 14.67,11 15.5,11 Z M8.5,11 C9.33,11 10,10.33 10,9.5 C10,8.67 9.33,8 8.5,8 C7.67,8 7,8.67 7,9.5 C7,10.33 7.67,11 8.5,11 Z M12,17.5 C14.33,17.5 16.31,16.04 17.11,14 L6.89,14 C7.69,16.04 9.67,17.5 12,17.5 Z" id="Icon-Shape" fill="#000000" fill-rule="nonzero"></path>
    </g>
</svg>