<?xml version="1.0" encoding="UTF-8"?>
<svg width="24px" height="24px" viewBox="0 0 24 24" version="1.1" xmlns="http://www.w3.org/2000/svg" xmlns:xlink="http://www.w3.org/1999/xlink">
    <!-- Generator: Sketch 54.1 (76490) - https://sketchapp.com -->
    <title>baseline-qrcode</title>
    <desc>Created with Sketch.</desc>
    <g id="baseline-qrcode" stroke="none" stroke-width="1" fill="none" fill-rule="evenodd">
        <path d="M1,1 L11,1 L11,11 L1,11 L1,1 Z M3,3 L3,9 L9,9 L9,3 L3,3 Z" id="Rectangle" fill="#000000" fill-rule="nonzero"></path>
        <rect id="Rectangle" fill="#000000" x="5" y="5" width="2" height="2"></rect>
        <path d="M13,1 L23,1 L23,11 L13,11 L13,1 Z M15,3 L15,9 L21,9 L21,3 L15,3 Z" id="Rectangle-Copy-2" fill="#000000" fill-rule="nonzero"></path>
        <rect id="Rectangle-Copy" fill="#000000" x="17" y="5" width="2" height="2"></rect>
        <path d="M1,13 L11,13 L11,23 L1,23 L1,13 Z M3,15 L3,21 L9,21 L9,15 L3,15 Z" id="Rectangle-Copy-4" fill="#000000" fill-rule="nonzero"></path>
        <rect id="Rectangle-Copy-3" fill="#000000" x="5" y="17" width="2" height="2"></rect>
        <path d="M23,19 L19,19 L19,23 L13,23 L13,13 L14,13 L13,13 L13,19 L15,19 L15,21 L17,21 L17,15 L15,15 L15,13 L14,13 L17,13 L17,15 L19,15 L19,17 L21,17 L21,13 L23,13 L23,19 Z M23,21 L23,23 L21,23 L21,21 L23,21 Z" id="Combined-Shape" fill="#000000" fill-rule="nonzero"></path>
    </g>
</svg>