<?xml version="1.0" encoding="UTF-8"?>
<svg width="24px" height="24px" viewBox="0 0 24 24" version="1.1" xmlns="http://www.w3.org/2000/svg" xmlns:xlink="http://www.w3.org/1999/xlink">
    <!-- Generator: Sketch 54.1 (76490) - https://sketchapp.com -->
    <title>round-qrcode</title>
    <desc>Created with Sketch.</desc>
    <g id="round-qrcode" stroke="none" stroke-width="1" fill="none" fill-rule="evenodd">
        <path d="M2,1 L10,1 C10.5522847,1 11,1.44771525 11,2 L11,10 C11,10.5522847 10.5522847,11 10,11 L2,11 C1.44771525,11 1,10.5522847 1,10 L1,2 C1,1.44771525 1.44771525,1 2,1 Z M3,3 L3,9 L9,9 L9,3 L3,3 Z" id="Rectangle" fill="#000000" fill-rule="nonzero"></path>
        <rect id="Rectangle" fill="#000000" x="5" y="5" width="2" height="2"></rect>
        <path d="M14,1 L22,1 C22.5522847,1 23,1.44771525 23,2 L23,10 C23,10.5522847 22.5522847,11 22,11 L14,11 C13.4477153,11 13,10.5522847 13,10 L13,2 C13,1.44771525 13.4477153,1 14,1 Z M15,3 L15,9 L21,9 L21,3 L15,3 Z" id="Rectangle-Copy-2" fill="#000000" fill-rule="nonzero"></path>
        <rect id="Rectangle-Copy" fill="#000000" x="17" y="5" width="2" height="2"></rect>
        <path d="M2,13 L10,13 C10.5522847,13 11,13.4477153 11,14 L11,22 C11,22.5522847 10.5522847,23 10,23 L2,23 C1.44771525,23 1,22.5522847 1,22 L1,14 C1,13.4477153 1.44771525,13 2,13 Z M3,15 L3,21 L9,21 L9,15 L3,15 Z" id="Rectangle-Copy-4" fill="#000000" fill-rule="nonzero"></path>
        <rect id="Rectangle-Copy-3" fill="#000000" x="5" y="17" width="2" height="2"></rect>
        <path d="M23,19 L19,19 L19,23 L14,23 C13.4477153,23 13,22.5522847 13,22 L13,14 C13,13.7238576 13.1119288,13.4738576 13.2928932,13.2928932 C13.1119288,13.4738576 13,13.7238576 13,14 L13,19 L15,19 L15,21 L17,21 L17,15 L15,15 L15,13 L14,13 C13.7238576,13 13.4738576,13.1119288 13.2928932,13.2928932 C13.4738576,13.1119288 13.7238576,13 14,13 L17,13 L17,15 L19,15 L19,17 L21,17 L21,13 L22,13 C22.5522847,13 23,13.4477153 23,14 L23,19 Z M23,21 L23,22 C23,22.5522847 22.5522847,23 22,23 L21,23 L21,21 L23,21 Z" id="Combined-Shape" fill="#000000" fill-rule="nonzero"></path>
    </g>
</svg>