<?xml version="1.0" encoding="UTF-8"?>
<svg width="24px" height="24px" viewBox="0 0 24 24" version="1.1" xmlns="http://www.w3.org/2000/svg" xmlns:xlink="http://www.w3.org/1999/xlink">
    <!-- Generator: Sketch 57.1 (83088) - https://sketch.com -->
    <title>percentage/round</title>
    <desc>Created with Sketch.</desc>
    <g id="percentage/round" stroke="none" stroke-width="1" fill="none" fill-rule="evenodd">
        <path d="M17.5027832,4.4982833 L4.49896673,17.5029667 C3.94779955,18.0541707 3.94781444,18.9478144 4.499,19.499 C5.05018018,20.0501802 5.94381982,20.0501802 6.495,19.499 L19.49875,6.49525003 C20.0501087,5.94389133 20.0502206,5.04999677 19.499,4.4985 C18.9479762,3.94720014 18.0543663,3.94697635 17.5030665,4.49800014 C17.502972,4.49809452 17.5028776,4.4981889 17.5027832,4.4982833 Z" id="Icon-Path" fill="#000000" fill-rule="nonzero"></path>
        <path d="M7.00200001,4.99999849 C6.28746865,4.99928497 5.62683324,5.37982266 5.26894876,5.9982677 C4.91106428,6.61671274 4.91030188,7.37910863 5.26694876,7.99826821 C5.62359564,8.61742778 6.28346864,8.99928598 6.998,8.99999849 C8.10256978,9.00110508 8.99889594,8.10656978 8.9999985,7.002 C9.00110508,5.89743023 8.10656978,5.00110407 7.00200001,4.99999849 Z" id="Icon-Path" fill="#000000" fill-rule="nonzero"></path>
        <path d="M17.002,14.9999985 C16.2874686,14.999285 15.6268332,15.3798226 15.2689487,15.9982677 C14.9110642,16.6167127 14.9103018,17.3791086 15.2669487,17.9982682 C15.6235956,18.6174278 16.2834686,18.999286 16.998,18.9999985 C18.1025697,19.0011051 18.9988959,18.1065698 18.9999984,17.002 C19.001105,15.8974302 18.1065697,15.0011041 17.002,14.9999985 L17.002,14.9999985 Z" id="Icon-Path" fill="#000000" fill-rule="nonzero"></path>
    </g>
</svg>