<?xml version="1.0" encoding="UTF-8"?>
<svg width="24px" height="24px" viewBox="0 0 24 24" version="1.1" xmlns="http://www.w3.org/2000/svg" xmlns:xlink="http://www.w3.org/1999/xlink">
    <!-- Generator: Sketch 57.1 (83088) - https://sketch.com -->
    <title>percentage/twotone</title>
    <desc>Created with Sketch.</desc>
    <g id="percentage/twotone" stroke="none" stroke-width="1" fill="none" fill-rule="evenodd">
        <polygon id="Icon-Path" fill="#000000" fill-rule="nonzero" points="18.501 3.5 3.501 18.501 5.497 20.497 20.497 5.497"></polygon>
        <circle id="Oval" fill="#000000" opacity="0.300000012" cx="7" cy="7" r="1"></circle>
        <circle id="Oval" fill="#000000" opacity="0.300000012" cx="17" cy="17" r="1"></circle>
        <path d="M17.003,13.9999985 C18.6598542,14.0016569 20.0016568,15.3461458 19.9999984,17.003 C19.9983431,18.6598542 18.6538542,20.0016568 16.997,19.9999985 C15.9252032,19.9989282 14.9353939,19.4261411 14.4004237,18.4974019 C13.8654535,17.5686628 13.8665971,16.4250692 14.4034237,15.4974019 C14.9402503,14.5697346 15.9312032,13.9989282 17.003,13.9999985 Z M17,16 C16.4477153,16 16,16.4477153 16,17 C16,17.5522847 16.4477153,18 17,18 C17.5522847,18 18,17.5522847 18,17 C18,16.4477153 17.5522847,16 17,16 Z" id="Combined-Shape" fill="#000000" fill-rule="nonzero"></path>
        <path d="M7.003,3.99999849 C8.65985425,4.00165685 10.0016569,5.34614575 9.9999985,7.003 C9.99834315,8.65985425 8.65385425,10.0016569 6.997,9.99999849 C5.92520323,9.9989282 4.93539397,9.42614105 4.40042379,8.49740192 C3.86545361,7.5686628 3.8665972,6.42506926 4.40342379,5.49740192 C4.94025038,4.56973459 5.93120323,3.9989282 7.003,3.99999849 Z M7,6 C6.44771525,6 6,6.44771525 6,7 C6,7.55228475 6.44771525,8 7,8 C7.55228475,8 8,7.55228475 8,7 C8,6.44771525 7.55228475,6 7,6 Z" id="Combined-Shape" fill="#000000" fill-rule="nonzero"></path>
    </g>
</svg>