<?xml version="1.0" encoding="UTF-8"?>
<svg width="24px" height="24px" viewBox="0 0 24 24" version="1.1" xmlns="http://www.w3.org/2000/svg" xmlns:xlink="http://www.w3.org/1999/xlink">
    <!-- Generator: Sketch 57.1 (83088) - https://sketch.com -->
    <title>web/round</title>
    <desc>Created with Sketch.</desc>
    <g id="web/round" stroke="none" stroke-width="1" fill="none" fill-rule="evenodd">
        <path d="M20,4 L4,4 C2.9,4 2.01,4.9 2.01,6 L2,18 C2,19.1 2.9,20 4,20 L20,20 C21.1,20 22,19.1 22,18 L22,6 C22,4.9 21.1,4 20,4 Z M4,9 L15,9 L15,13 L4,13 L4,9 Z M4,14 L15,14 L15,18 L5,18 C4.45,18 4,17.55 4,17 L4,14 Z M19,18 L16,18 L16,9 L20,9 L20,17 C20,17.55 19.55,18 19,18 Z" id="Shape" fill="#000000" fill-rule="nonzero"></path>
    </g>
</svg>