<?xml version="1.0" encoding="UTF-8"?>
<svg width="24px" height="24px" viewBox="0 0 24 24" version="1.1" xmlns="http://www.w3.org/2000/svg" xmlns:xlink="http://www.w3.org/1999/xlink">
    <!-- Generator: Sketch 53.2 (72643) - https://sketchapp.com -->
    <title>sharp-content_paste</title>
    <desc>Created with Sketch.</desc>
    <g id="sharp-content_paste" stroke="none" stroke-width="1" fill="none" fill-rule="evenodd">
        <path d="M21,2 L14.82,2 C14.4,0.84 13.3,0 12,0 C10.7,0 9.6,0.84 9.18,2 L3,2 L3,22 L21,22 L21,2 Z M12,2 C12.55,2 13,2.45 13,3 C13,3.55 12.55,4 12,4 C11.45,4 11,3.55 11,3 C11,2.45 11.45,2 12,2 Z M19,20 L5,20 L5,4 L7,4 L7,7 L17,7 L17,4 L19,4 L19,20 Z" id="Shape" fill="#000000" fill-rule="nonzero"></path>
    </g>
</svg>