<?xml version="1.0" encoding="UTF-8"?>
<svg width="24px" height="24px" viewBox="0 0 24 24" version="1.1" xmlns="http://www.w3.org/2000/svg" xmlns:xlink="http://www.w3.org/1999/xlink">
    <!-- Generator: Sketch 53.2 (72643) - https://sketchapp.com -->
    <title>round-log_out</title>
    <desc>Created with Sketch.</desc>
    <g id="round-log_out" stroke="none" stroke-width="1" fill="none" fill-rule="evenodd">
        <path d="M6,2 L15,2 C16.1045695,2 17,2.8954305 17,4 L17,5 C17,5.55228475 16.5522847,6 16,6 L16,6 C15.4477153,6 15,5.55228475 15,5 L15,4 L6,4 L6,20 L15,20 L15,19 C15,18.4477153 15.4477153,18 16,18 L16,18 C16.5522847,18 17,18.4477153 17,19 L17,20 C17,21.1045695 16.1045695,22 15,22 L6,22 C4.8954305,22 4,21.1045695 4,20 L4,4 C4,2.8954305 4.8954305,2 6,2 Z" id="Path" fill="#000000" fill-rule="nonzero"></path>
        <path d="M16.795,16.295 L16.795,16.295 C17.1843607,16.6843607 17.8156393,16.6843607 18.205,16.295 L21.7928932,12.7071068 C22.1834175,12.3165825 22.1834175,11.6834175 21.7928932,11.2928932 L18.205,7.705 C17.8156393,7.31563925 17.1843607,7.31563925 16.795,7.705 L16.795,7.705 C16.4054189,8.09458114 16.4048082,8.72602837 16.793635,9.11636232 L18.67,11 L10,11 C9.44771525,11 9,11.4477153 9,12 L9,12 C9,12.5522847 9.44771525,13 10,13 L18.67,13 L16.793635,14.8836377 C16.4048082,15.2739716 16.4054189,15.9054189 16.795,16.295 Z" id="Icon-Path" fill="#000000" fill-rule="nonzero"></path>
    </g>
</svg>