<?xml version="1.0" encoding="UTF-8"?>
<svg width="24px" height="24px" viewBox="0 0 24 24" version="1.1" xmlns="http://www.w3.org/2000/svg" xmlns:xlink="http://www.w3.org/1999/xlink">
    <!-- Generator: Sketch 57.1 (83088) - https://sketch.com -->
    <title>plus_minus/round</title>
    <desc>Created with Sketch.</desc>
    <g id="plus_minus/round" stroke="none" stroke-width="1" fill="none" fill-rule="evenodd">
        <path d="M18,10.998 L13,10.998 L13,10.998 L13,15.998 C13,16.5502847 12.5522847,16.998 12,16.998 C11.4477153,16.998 11,16.5502847 11,15.998 L11,10.998 L11,10.998 L6,10.998 C5.44771525,10.998 5,10.5502847 5,9.998 C5,9.44571525 5.44771525,8.998 6,8.998 L11,8.998 L11,8.998 L11,3.998 C11,3.44571525 11.4477153,2.998 12,2.998 C12.5522847,2.998 13,3.44571525 13,3.998 L13,8.998 L13,8.998 L18,8.998 C18.5522847,8.998 19,9.44571525 19,9.998 C19,10.5502847 18.5522847,10.998 18,10.998 Z" id="Icon-Path" fill="#000000" fill-rule="nonzero"></path>
        <path d="M18,20.998 L6,20.998 C5.44771525,20.998 5,20.5502847 5,19.998 C5,19.4457153 5.44771525,18.998 6,18.998 L18,18.998 C18.5522847,18.998 19,19.4457153 19,19.998 C19,20.5502847 18.5522847,20.998 18,20.998 Z" id="Icon-Path-Copy" fill="#000000" fill-rule="nonzero"></path>
    </g>
</svg>