<?xml version="1.0" encoding="UTF-8"?>
<svg width="24px" height="24px" viewBox="0 0 24 24" version="1.1" xmlns="http://www.w3.org/2000/svg" xmlns:xlink="http://www.w3.org/1999/xlink">
    <!-- Generator: Sketch Beta 54 (76408) - https://sketchapp.com -->
    <title>round-file_upload</title>
    <desc>Created with Sketch Beta.</desc>
    <g id="round-file_upload" stroke="none" stroke-width="1" fill="none" fill-rule="evenodd">
        <path d="M10,16 L14,16 C14.5522847,16 15,15.5522847 15,15 L15,10 L16.5857864,10 C17.1380712,10 17.5857864,9.55228475 17.5857864,9 C17.5857864,8.73478351 17.4804296,8.4804296 17.2928932,8.29289322 L12.7071068,3.70710678 C12.3165825,3.31658249 11.6834175,3.31658249 11.2928932,3.70710678 L6.70710678,8.29289322 C6.31658249,8.68341751 6.31658249,9.31658249 6.70710678,9.70710678 C6.89464316,9.89464316 7.14899707,10 7.41421356,10 L9,10 L9,15 C9,15.5522847 9.44771525,16 10,16 Z" id="Path" fill="#000000" fill-rule="nonzero"></path>
        <path d="M6,18 L18,18 C18.5522847,18 19,18.4477153 19,19 L19,19 C19,19.5522847 18.5522847,20 18,20 L6,20 C5.44771525,20 5,19.5522847 5,19 L5,19 C5,18.4477153 5.44771525,18 6,18 Z" id="Path" fill="#000000" fill-rule="nonzero"></path>
    </g>
</svg>