<?xml version="1.0" encoding="UTF-8"?>
<svg width="24px" height="24px" viewBox="0 0 24 24" version="1.1" xmlns="http://www.w3.org/2000/svg" xmlns:xlink="http://www.w3.org/1999/xlink">
    <!-- Generator: Sketch 53.2 (72643) - https://sketchapp.com -->
    <title>outline-reply_all</title>
    <desc>Created with Sketch.</desc>
    <g id="Page-1" stroke="none" stroke-width="1" fill="none" fill-rule="evenodd">
        <g id="reply-/-share" transform="translate(-24.000000, -24.000000)" fill="#000000" fill-rule="nonzero">
            <g id="ic-outline-reply-all" transform="translate(24.000000, 29.000000)">
                <polygon id="Icon-Path" points="7 3 7 0 0 7 7 14 7 11 3 7"></polygon>
                <path d="M13,4 C20,5 23,10 24,15 C21.5,11.5 18,9.9 13,9.9 L13,14 L6,7 L13,0 L13,4 Z M8.82842712,7 L11,9.17157288 L11,7.9 L13,7.9 C15.0941947,7.9 16.9771055,8.16194298 18.6646685,8.69846499 C17.1617765,7.2672614 15.1921814,6.33347387 12.7171573,5.97989899 L11,5.7345908 L11,4.82842712 L8.82842712,7 Z" id="Combined-Shape"></path>
            </g>
        </g>
    </g>
</svg>