<?xml version="1.0" encoding="UTF-8"?>
<svg width="24px" height="24px" viewBox="0 0 24 24" version="1.1" xmlns="http://www.w3.org/2000/svg" xmlns:xlink="http://www.w3.org/1999/xlink">
    <!-- Generator: Sketch 57.1 (83088) - https://sketch.com -->
    <title>not_equal/round</title>
    <desc>Created with Sketch.</desc>
    <g id="not_equal/round" stroke="none" stroke-width="1" fill="none" fill-rule="evenodd">
        <path d="M18,9.998 L6,9.998 C5.44771525,9.998 5,9.55028475 5,8.998 C5,8.44571525 5.44771525,7.998 6,7.998 L18,7.998 C18.5522847,7.998 19,8.44571525 19,8.998 C19,9.55028475 18.5522847,9.998 18,9.998 Z" id="Icon-Path" fill="#000000" fill-rule="nonzero"></path>
        <path d="M18,15.998 L6,15.998 C5.44771525,15.998 5,15.5502847 5,14.998 C5,14.4457153 5.44771525,13.998 6,13.998 L18,13.998 C18.5522847,13.998 19,14.4457153 19,14.998 C19,15.5502847 18.5522847,15.998 18,15.998 Z" id="Icon-Path-Copy" fill="#000000" fill-rule="nonzero"></path>
        <path d="M14.9988865,4.99952193 L15.0011135,5.00047807 C15.5081064,5.21886824 15.7429325,5.80649221 15.5260807,6.31414503 L10.3139193,18.475855 C10.0969662,18.983743 9.50908727,19.2188945 9.00145749,19.0013389 C9.00125658,19.0012528 9.00105571,19.0011667 9.00111348,19.0004781 L8.99888652,18.9995219 C8.49189359,18.7811318 8.25706746,18.1935078 8.4739193,17.685855 L13.6860807,5.52414503 C13.9030338,5.01625702 14.4909127,4.78110545 14.9985425,4.99866108 C14.9987434,4.99874718 14.9989443,4.99883335 14.9988865,4.99952193 Z" id="Icon-Path" fill="#000000" fill-rule="nonzero"></path>
    </g>
</svg>