<?xml version="1.0" encoding="UTF-8"?>
<svg width="24px" height="24px" viewBox="0 0 24 24" version="1.1" xmlns="http://www.w3.org/2000/svg" xmlns:xlink="http://www.w3.org/1999/xlink">
    <!-- Generator: Sketch 54.1 (76490) - https://sketchapp.com -->
    <title>outline-rocket</title>
    <desc>Created with Sketch.</desc>
    <g id="outline-rocket" stroke="none" stroke-width="1" fill="none" fill-rule="evenodd">
        <path d="M9,19 C8,19 5,16 5,15 C5,14.6666667 5.33333333,14 6,13 L2,12 L4,9 L8,10 C12,4 18,2 22,2 C22,6 20,12 14,16 L15,20 L12,22 L11,18 C10,18.6666667 9.33333333,19 9,19 Z M8.03921356,15.9607864 C8.39372968,16.3153026 8.75862049,16.6315715 9.06297053,16.8507209 C9.2863611,16.725697 9.56416359,16.5535234 9.89059961,16.3358994 L12.8905996,14.3358994 C16.7893811,11.7367117 19.1295432,7.91987875 19.7994074,4.20059263 C16.0801213,4.87045683 12.2632883,7.21061888 9.66410059,11.1094004 L7.66410059,14.1094004 C7.44647657,14.4358364 7.27430297,14.7136389 7.14927906,14.9370295 C7.36842848,15.2413795 7.68469745,15.6062703 8.03921356,15.9607864 Z" id="Combined-Shape" fill="#000000"></path>
        <circle id="Oval" fill="#000000" cx="15.5" cy="8.5" r="1.5"></circle>
        <path d="M4,16 L5,17.5 C4.33333333,18.1666667 4,19 4,20 C5,20 5.83333333,19.6666667 6.5,19 L8,20 C6.66666667,21.3333333 4.66666667,22 2,22 C2,19.3333333 2.66666667,17.3333333 4,16 Z" id="Rectangle" fill="#000000"></path>
    </g>
</svg>