<?xml version="1.0" encoding="UTF-8"?>
<svg width="24px" height="24px" viewBox="0 0 24 24" version="1.1" xmlns="http://www.w3.org/2000/svg" xmlns:xlink="http://www.w3.org/1999/xlink">
    <!-- Generator: Sketch 54.1 (76490) - https://sketchapp.com -->
    <title>round-rocket</title>
    <desc>Created with Sketch.</desc>
    <g id="round-rocket" stroke="none" stroke-width="1" fill="none" fill-rule="evenodd">
        <path d="M9,19 C8,19 5,16 5,15 C5,14.6666667 5.33333333,14 6,13 L3.37663697,12.3441592 C3.26543688,12.3163592 3.15984403,12.2696481 3.0644724,12.206067 C2.60494371,11.8997146 2.48076984,11.2788452 2.7871223,10.8193165 L3.60909212,9.58636181 C3.84351599,9.23472602 4.2736826,9.06842065 4.68367804,9.17091951 L8,10 C12,4 18,2 22,2 C22,6 20,12 14,16 L14.8290805,19.316322 C14.9315793,19.7263174 14.765274,20.156484 14.4136382,20.3909079 L13.1806835,21.2128777 C13.0853118,21.2764588 12.979719,21.3231699 12.8685189,21.3509699 C12.332724,21.4849186 11.7897895,21.1591579 11.6558408,20.623363 L11,18 C10,18.6666667 9.33333333,19 9,19 Z M15.5,10 C16.3284271,10 17,9.32842712 17,8.5 C17,7.67157288 16.3284271,7 15.5,7 C14.6715729,7 14,7.67157288 14,8.5 C14,9.32842712 14.6715729,10 15.5,10 Z" id="Combined-Shape" fill="#000000"></path>
        <path d="M4,16 L5,17.5 C4.33333333,18.1666667 4,19 4,20 C5,20 5.83333333,19.6666667 6.5,19 L8,20 C6.85978553,21.1402145 5.23203767,21.7928956 3.11675641,21.9580432 L3.11675614,21.9580398 C2.56614887,22.0010277 2.0849449,21.5895209 2.04195699,21.0389136 C2.03791182,20.9871014 2.03791182,20.9350526 2.04195701,20.8832404 C2.20710511,18.7679607 2.8597861,17.1402139 4,16 Z" id="Rectangle" fill="#000000"></path>
    </g>
</svg>