<?xml version="1.0" encoding="UTF-8"?>
<svg width="24px" height="24px" viewBox="0 0 24 24" version="1.1" xmlns="http://www.w3.org/2000/svg" xmlns:xlink="http://www.w3.org/1999/xlink">
    <!-- Generator: Sketch 53.2 (72643) - https://sketchapp.com -->
    <title>round-sim_card_alert</title>
    <desc>Created with Sketch.</desc>
    <g id="round-sim_card_alert" stroke="none" stroke-width="1" fill="none" fill-rule="evenodd">
        <path d="M19.99,4 C19.99,2.9 19.1,2 18,2 L10.83,2 C10.3,2 9.79,2.21 9.41,2.59 L4.59,7.41 C4.21,7.79 4,8.3 4,8.83 L4,20 C4,21.1 4.9,22 6,22 L18.01,22 C19.11,22 20,21.1 20,20 L19.99,4 L19.99,4 Z M12,17 C11.45,17 11,16.55 11,16 C11,15.45 11.45,15 12,15 C12.55,15 13,15.45 13,16 C13,16.55 12.55,17 12,17 Z M12,13 C11.45,13 11,12.55 11,12 L11,9 C11,8.45 11.45,8 12,8 C12.55,8 13,8.45 13,9 L13,12 C13,12.55 12.55,13 12,13 Z" id="Icon-Shape" fill="#000000" fill-rule="nonzero"></path>
    </g>
</svg>