<?xml version="1.0" encoding="UTF-8"?>
<svg width="24px" height="24px" viewBox="0 0 24 24" version="1.1" xmlns="http://www.w3.org/2000/svg" xmlns:xlink="http://www.w3.org/1999/xlink">
    <!-- Generator: Sketch Beta 54 (76408) - https://sketchapp.com -->
    <title>sharp-sentiment_slightly_dissatisfied</title>
    <desc>Created with Sketch Beta.</desc>
    <g id="sharp-sentiment_slightly_dissatisfied" stroke="none" stroke-width="1" fill="none" fill-rule="evenodd">
        <circle id="Icon-Oval" fill="#000000" fill-rule="nonzero" cx="15.5" cy="9.5" r="1.5"></circle>
        <circle id="Icon-Oval" fill="#000000" fill-rule="nonzero" cx="8.5" cy="9.5" r="1.5"></circle>
        <path d="M11.99,2 C6.47,2 2,6.48 2,12 C2,17.52 6.47,22 11.99,22 C17.52,22 22,17.52 22,12 C22,6.48 17.52,2 11.99,2 Z M12,20 C7.58,20 4,16.42 4,12 C4,7.58 7.58,4 12,4 C16.42,4 20,7.58 20,12 C20,16.42 16.42,20 12,20 Z M12,16.5 C12.73,16.5 13.39,16.69 13.97,17.03 C14.09,16.89 14.83,16.05 14.98,15.89 C14.0956927,15.3069726 13.0592043,14.9974173 12,15 C10.89,15 9.87,15.33 9.01,15.88 C9.98,16.97 9.02,15.9 10.02,17.02 C10.61,16.69 11.27,16.5 12,16.5 Z" id="Icon-Shape" fill="#000000" fill-rule="nonzero"></path>
    </g>
</svg>