<?xml version="1.0" encoding="UTF-8"?>
<svg width="24px" height="24px" viewBox="0 0 24 24" version="1.1" xmlns="http://www.w3.org/2000/svg" xmlns:xlink="http://www.w3.org/1999/xlink">
    <!-- Generator: Sketch 53.2 (72643) - https://sketchapp.com -->
    <title>round-do_not_disturb_off</title>
    <desc>Created with Sketch.</desc>
    <g id="round-do_not_disturb_off" stroke="none" stroke-width="1" fill="none" fill-rule="evenodd">
        <path d="M17,12 L17,12 C17,12.5522847 16.5522847,13 16,13 L15.54,13 L20.22,17.68 C21.380773,16.0135129 22.0020837,14.0309034 22,12 C22,6.48 17.52,2 12,2 C9.89,2 7.93,2.66 6.32,3.78 L13.54,11 L16,11 C16.5522847,11 17,11.4477153 17,12 Z M1.635,2.905 L1.635,2.905 C1.28429918,3.25570082 1.28429918,3.82429918 1.635,4.175 L3.78,6.32 C2.61922705,7.98648711 1.99791634,9.96909656 2,12 C2,17.52 6.48,22 12,22 C14.11,22 16.07,21.34 17.68,20.22 L19.825,22.365 C20.1757008,22.7157008 20.7442992,22.7157008 21.095,22.365 L21.095,22.365 C21.4457008,22.0142992 21.4457008,21.4457008 21.095,21.095 L11,11 L2.905,2.905 C2.55429918,2.55429918 1.98570082,2.55429918 1.635,2.905 Z M7,12 L7,12 C7,11.4477153 7.44771525,11 8,11 L8.46,11 L10.46,13 L8,13 C7.44771525,13 7,12.5522847 7,12 Z" id="Shape" fill="#000000" fill-rule="nonzero"></path>
    </g>
</svg>