<?xml version="1.0" encoding="UTF-8"?>
<svg width="24px" height="24px" viewBox="0 0 24 24" version="1.1" xmlns="http://www.w3.org/2000/svg" xmlns:xlink="http://www.w3.org/1999/xlink">
    <!-- Generator: Sketch 53.2 (72643) - https://sketchapp.com -->
    <title>twotone-do_not_disturb_off</title>
    <desc>Created with Sketch.</desc>
    <g id="twotone-do_not_disturb_off" stroke="none" stroke-width="1" fill="none" fill-rule="evenodd">
        <path d="M6.34314575,6.34314575 L17.6568542,17.6568542 C16.209139,19.1045695 14.209139,20 12,20 C7.581722,20 4,16.418278 4,12 C4,9.790861 4.8954305,7.790861 6.34314575,6.34314575 Z M7.75677821,5.21677821 C8.98671687,4.44576951 10.4413009,4 12,4 C16.418278,4 20,7.581722 20,12 C20,13.5586991 19.5542305,15.0132831 18.7832218,16.2432218 L12.27,9.73 L7.75677821,5.21677821 Z M11,11 L13,13 L7,13 L7,11 L11,11 Z M13.54,11 L17,11 L17,13 L15.54,13 L13.54,11 Z" id="Oval-Copy" fill="#000000" fill-rule="nonzero" opacity="0.300000012"></path>
        <path d="M4.92893219,4.92893219 L6.34314575,6.34314575 C4.8954305,7.790861 4,9.790861 4,12 C4,16.418278 7.581722,20 12,20 C14.209139,20 16.209139,19.1045695 17.6568542,17.6568542 L19.0710678,19.0710678 C17.2614237,20.8807119 14.7614237,22 12,22 C6.4771525,22 2,17.5228475 2,12 C2,9.23857625 3.11928813,6.73857625 4.92893219,4.92893219 Z M6.31326468,3.77326468 C7.92779114,2.65510969 9.88739104,2 12,2 C17.5228475,2 22,6.4771525 22,12 C22,14.112609 21.3448903,16.0722089 20.2267353,17.6867353 L18.7832218,16.2432218 C19.5542305,15.0132831 20,13.5586991 20,12 C20,7.581722 16.418278,4 12,4 C10.4413009,4 8.98671687,4.44576951 7.75677821,5.21677821 L6.31326468,3.77326468 Z M11,11 L13,13 L7,13 L7,11 L11,11 Z M13.54,11 L17,11 L17,13 L15.54,13 L13.54,11 Z" id="Oval" fill="#000000" fill-rule="nonzero"></path>
        <polygon id="line" fill="#000000" fill-rule="nonzero" points="2.27 2.27 1 3.54 20.46 23 21.73 21.73 11 11"></polygon>
    </g>
</svg>