<?xml version="1.0" encoding="UTF-8"?>
<svg width="24px" height="24px" viewBox="0 0 24 24" version="1.1" xmlns="http://www.w3.org/2000/svg" xmlns:xlink="http://www.w3.org/1999/xlink">
    <!-- Generator: Sketch 53.2 (72643) - https://sketchapp.com -->
    <title>twotone-do_not_disturb_alt</title>
    <desc>Created with Sketch.</desc>
    <g id="twotone-do_not_disturb_alt" stroke="none" stroke-width="1" fill="none" fill-rule="evenodd">
        <path d="M12,20 C10.2,20 8.5,19.4 7.1,18.3 L18.3,7.1 C19.4,8.5 20,10.2 20,12 C20,16.4 16.4,20 12,20 Z" id="Path" fill="#000000" fill-rule="nonzero" opacity="0.300000012"></path>
        <path d="M4,12 C4,7.6 7.6,4 12,4 C13.8,4 15.5,4.6 16.9,5.7 L5.7,16.9 C4.6,15.5 4,13.8 4,12 Z" id="Path" fill="#000000" fill-rule="nonzero" opacity="0.300000012"></path>
        <path d="M12,2 C6.5,2 2,6.5 2,12 C2,17.5 6.5,22 12,22 C17.5,22 22,17.5 22,12 C22,6.5 17.5,2 12,2 Z M4,12 C4,7.6 7.6,4 12,4 C13.8,4 15.5,4.6 16.9,5.7 L5.7,16.9 C4.6,15.5 4,13.8 4,12 Z M12,20 C10.2,20 8.5,19.4 7.1,18.3 L18.3,7.1 C19.4,8.5 20,10.2 20,12 C20,16.4 16.4,20 12,20 Z" id="Shape" fill="#000000" fill-rule="nonzero"></path>
    </g>
</svg>