<svg width="24" height="24" viewBox="0 0 24 24" fill="none" xmlns="http://www.w3.org/2000/svg">
<path fill-rule="evenodd" clip-rule="evenodd" d="M17 6H8C7.46957 6 6.96086 6.21071 6.58579 6.58579C6.21071 6.96086 6 7.46957 6 8V19C6 19.5304 6.21071 20.0391 6.58579 20.4142C6.96086 20.7893 7.46957 21 8 21H19C20.1 21 21 20.1 21 19V10L17 6ZM8 9.5C8 8.67157 8.67157 8 9.5 8H13.5C14.3284 8 15 8.67157 15 9.5C15 10.3284 14.3284 11 13.5 11H9.5C8.67157 11 8 10.3284 8 9.5ZM13.5 19C14.8807 19 16 17.8807 16 16.5C16 15.1193 14.8807 14 13.5 14C12.1193 14 11 15.1193 11 16.5C11 17.8807 12.1193 19 13.5 19Z" fill="black"/>
<path d="M2 4C2 2.89543 2.89543 2 4 2H13C13.5523 2 14 2.44772 14 3V3C14 3.55228 13.5523 4 13 4H5C4.44772 4 4 4.44772 4 5V13C4 13.5523 3.55228 14 3 14V14C2.44772 14 2 13.5523 2 13V4Z" fill="black"/>
</svg>
