<?xml version="1.0" encoding="UTF-8"?>
<svg width="24px" height="24px" viewBox="0 0 24 24" version="1.1" xmlns="http://www.w3.org/2000/svg" xmlns:xlink="http://www.w3.org/1999/xlink">
    <!-- Generator: Sketch 57.1 (83088) - https://sketch.com -->
    <title>stop_circle/outline</title>
    <desc>Created with Sketch.</desc>
    <g id="stop_circle/outline" stroke="none" stroke-width="1" fill="none" fill-rule="evenodd">
        <path d="M12,2 C6.48,2 2,6.48 2,12 C2,17.52 6.48,22 12,22 C17.52,22 22,17.52 22,12 C22,6.48 17.52,2 12,2 Z M12,4 C16.4154305,4 20,7.5845695 20,12 C20,16.4154305 16.4154305,20 12,20 C7.5845695,20 4,16.4154305 4,12 C4,7.5845695 7.5845695,4 12,4 Z" id="Icon-Path" fill="#000000" fill-rule="nonzero"></path>
        <polygon id="Icon-Path" fill="#000000" fill-rule="nonzero" points="16 16 8 16 8 8 16 8"></polygon>
    </g>
</svg>