<?xml version="1.0" encoding="UTF-8"?>
<svg width="24px" height="24px" viewBox="0 0 24 24" version="1.1" xmlns="http://www.w3.org/2000/svg" xmlns:xlink="http://www.w3.org/1999/xlink">
    <!-- Generator: Sketch 57.1 (83088) - https://sketch.com -->
    <title>stop_circle/round</title>
    <desc>Created with Sketch.</desc>
    <g id="stop_circle/round" stroke="none" stroke-width="1" fill="none" fill-rule="evenodd">
        <path d="M12,2 C6.48,2 2,6.48 2,12 C2,17.52 6.48,22 12,22 C17.52,22 22,17.52 22,12 C22,6.48 17.52,2 12,2 Z M15,16 L9,16 C8.44771525,16 8,15.5522847 8,15 L8,9 C8,8.44771525 8.44771525,8 9,8 L15,8 C15.5522847,8 16,8.44771525 16,9 L16,15 C16,15.5522847 15.5522847,16 15,16 Z" id="Icon-Shape" fill="#000000" fill-rule="nonzero"></path>
    </g>
</svg>