<?xml version="1.0" encoding="UTF-8"?>
<svg width="24px" height="24px" viewBox="0 0 24 24" version="1.1" xmlns="http://www.w3.org/2000/svg" xmlns:xlink="http://www.w3.org/1999/xlink">
    <!-- Generator: Sketch Beta 54 (76408) - https://sketchapp.com -->
    <title>baseline-sentiment_very_satisfied</title>
    <desc>Created with Sketch Beta.</desc>
    <g id="baseline-sentiment_very_satisfied" stroke="none" stroke-width="1" fill="none" fill-rule="evenodd">
        <path d="M11.99,2 C17.52,2 22,6.47 22,12 C22,17.53 17.51,22 11.99,22 C6.47,22 2,17.53 2,12 C2,6.47 6.47,2 11.99,2 Z M13,9.94 L14.06,11 L15.12,9.94 L16.18,11 L17.24,9.94 L15.12,7.82 L13,9.94 Z M8.88,9.94 L9.94,11 L11,9.94 L8.88,7.82 L6.76,9.94 L7.82,11 L8.88,9.94 Z M12,17.5 C14.33,17.5 16.31,16.04 17.11,14 L6.89,14 C7.69,16.04 9.67,17.5 12,17.5 Z" id="Icon-Shape" fill="#000000" fill-rule="nonzero"></path>
    </g>
</svg>