<?xml version="1.0" encoding="UTF-8"?>
<svg width="24px" height="24px" viewBox="0 0 24 24" version="1.1" xmlns="http://www.w3.org/2000/svg" xmlns:xlink="http://www.w3.org/1999/xlink">
    <!-- Generator: Sketch Beta 54 (76408) - https://sketchapp.com -->
    <title>round-system_update_alt</title>
    <desc>Created with Sketch Beta.</desc>
    <g id="round-system_update_alt" stroke="none" stroke-width="1" fill="none" fill-rule="evenodd">
        <path d="M12.7071068,15.2928932 L16,12 L13,12 L13,4 C13,3.44771525 12.5522847,3 12,3 L12,3 C11.4477153,3 11,3.44771525 11,4 L11,12 L8,12 L11.2928932,15.2928932 C11.6834175,15.6834175 12.3165825,15.6834175 12.7071068,15.2928932 Z M21,3 L15.995,3 C15.4454767,3 15,3.44547667 15,3.995 L15,3.995 C15,4.54452333 15.4454767,4.99 15.995,4.99 L21,4.99 L21,19.02 L3,19.02 L3,4.99 L8.005,4.99 C8.55452333,4.99 9,4.54452333 9,3.995 L9,3.995 C9,3.44547667 8.55452333,3 8.005,3 L3,3 C1.9,3 1,3.9 1,5 L1,19 C1,20.1 1.9,21 3,21 L21,21 C22.1,21 23,20.1 23,19 L23,5 C23,3.9 22.1,3 21,3 Z" id="Shape" fill="#000000" fill-rule="nonzero"></path>
    </g>
</svg>