<?xml version="1.0" encoding="UTF-8"?>
<svg width="24px" height="24px" viewBox="0 0 24 24" version="1.1" xmlns="http://www.w3.org/2000/svg" xmlns:xlink="http://www.w3.org/1999/xlink">
    <!-- Generator: Sketch Beta 54 (76408) - https://sketchapp.com -->
    <title>twotone-system_update_alt</title>
    <desc>Created with Sketch Beta.</desc>
    <g id="twotone-system_update_alt" stroke="none" stroke-width="1" fill="none" fill-rule="evenodd">
        <path d="M12,16 L16,12 L13,12 L13,3 L11,3 L11,12 L8,12 L12,16 Z M21,3 L15,3 L15,4.99 L21,4.99 L21,19.02 L3,19.02 L3,4.99 L9,4.99 L9,3 L3,3 C1.9,3 1,3.9 1,5 L1,19 C1,20.1 1.9,21 3,21 L21,21 C22.1,21 23,20.1 23,19 L23,5 C23,3.9 22.1,3 21,3 Z" id="Shape" fill="#000000" fill-rule="nonzero"></path>
    </g>
</svg>