<?xml version="1.0" encoding="UTF-8"?>
<svg width="24px" height="24px" viewBox="0 0 24 24" version="1.1" xmlns="http://www.w3.org/2000/svg" xmlns:xlink="http://www.w3.org/1999/xlink">
    <!-- Generator: Sketch Beta 54 (76408) - https://sketchapp.com -->
    <title>baseline-sentiment_very_dissatisfied</title>
    <desc>Created with Sketch Beta.</desc>
    <g id="baseline-sentiment_very_dissatisfied" stroke="none" stroke-width="1" fill="none" fill-rule="evenodd">
        <path d="M11.99,2 C17.52,2 22,6.47 22,12 C22,17.53 17.51,22 11.99,22 C6.47,22 2,17.53 2,12 C2,6.47 6.47,2 11.99,2 Z M12,13.5 C9.67,13.5 7.69,14.96 6.89,17 L17.11,17 C16.31,14.96 14.33,13.5 12,13.5 Z M7.82,12 L8.88,10.94 L9.94,12 L11,10.94 L9.94,9.88 L11,8.82 L9.94,7.76 L8.88,8.82 L7.82,7.76 L6.76,8.82 L7.82,9.88 L6.76,10.94 L7.82,12 Z M16.18,7.76 L15.12,8.82 L14.06,7.76 L13,8.82 L14.06,9.88 L13,10.94 L14.06,12 L15.12,10.94 L16.18,12 L17.24,10.94 L16.18,9.88 L17.24,8.82 L16.18,7.76 Z" id="Icon-Shape" fill="#000000" fill-rule="nonzero"></path>
    </g>
</svg>