<?xml version="1.0" encoding="UTF-8"?>
<svg width="24px" height="24px" viewBox="0 0 24 24" version="1.1" xmlns="http://www.w3.org/2000/svg" xmlns:xlink="http://www.w3.org/1999/xlink">
    <!-- Generator: Sketch 53.2 (72643) - https://sketchapp.com -->
    <title>baseline-spa</title>
    <desc>Created with Sketch.</desc>
    <g id="baseline-spa" stroke="none" stroke-width="1" fill="none" fill-rule="evenodd">
        <path d="M15.49,9.63 C15.31,6.84 14.18,4.12 12.06,2 C9.92,4.14 8.74,6.86 8.51,9.63 C9.79,10.31 10.97,11.19 12,12.26 C13.03,11.2 14.21,10.32 15.49,9.63 L15.49,9.63 Z M8.99,12.28 C8.85,12.18 8.69,12.09 8.54,11.99 C8.69,12.1 8.85,12.18 8.99,12.28 Z M15.41,12.03 C15.28,12.12 15.14,12.19 15.01,12.29 C15.14,12.19 15.28,12.12 15.41,12.03 Z M12,15.45 C9.85,12.17 6.18,10 2,10 C2,15.32 5.36,19.82 10.03,21.49 C10.66,21.72 11.32,21.89 12,22 C12.68,21.88 13.33,21.71 13.97,21.49 C18.64,19.82 22,15.32 22,10 C17.82,10 14.15,12.17 12,15.45 Z" id="Shape" fill="#000000" fill-rule="nonzero"></path>
    </g>
</svg>