<?xml version="1.0" encoding="UTF-8"?>
<svg width="24px" height="24px" viewBox="0 0 24 24" version="1.1" xmlns="http://www.w3.org/2000/svg" xmlns:xlink="http://www.w3.org/1999/xlink">
    <!-- Generator: Sketch 53.2 (72643) - https://sketchapp.com -->
    <title>ic-outline_pets</title>
    <desc>Created with Sketch.</desc>
    <g id="ic-outline_pets" stroke="none" stroke-width="1" fill="none" fill-rule="evenodd">
        <circle id="Icon-Oval" fill="#000000" fill-rule="nonzero" cx="4.5" cy="9.5" r="2.5"></circle>
        <circle id="Icon-Oval" fill="#000000" fill-rule="nonzero" cx="9" cy="5.5" r="2.5"></circle>
        <circle id="Icon-Oval" fill="#000000" fill-rule="nonzero" cx="15" cy="5.5" r="2.5"></circle>
        <circle id="Icon-Oval" fill="#000000" fill-rule="nonzero" cx="19.5" cy="9.5" r="2.5"></circle>
        <path d="M12.2284718,12.5011967 C12.1703703,12.5002161 12.1248933,12.5000236 12,12.5 C11.8350875,12.5 11.7677225,12.5007982 11.6992348,12.5040287 C11.6416894,12.5067431 11.605344,12.5106188 11.5677709,12.5177398 C11.5699375,12.5173459 11.5687825,12.5176609 11.5286486,12.5318919 C11.3112039,12.6064444 11.0084444,12.8481322 10.6516679,13.2578932 C10.3400354,13.6232554 10.0414742,13.9749306 9.45986006,14.6605617 L9.41822552,14.7095943 C8.92204429,15.2938825 8.55571064,15.7228016 8.16431346,16.1764665 L8.06421356,16.2842136 C7.99851879,16.3499083 7.62671669,16.7190724 7.52248793,16.8237173 C6.36742238,17.9833947 5.96190428,18.6287229 5.99606959,19.245568 C6.15068435,19.6789738 6.41538116,19.9419441 6.75771711,20.0198442 C6.69076508,20.004467 6.84410459,19.9999622 7.10006708,19.9730087 C7.2669258,19.955438 7.46011131,19.9318228 7.74616806,19.8945839 C7.65505283,19.9064453 8.3590817,19.8139992 8.56279471,19.7881366 C9.85944966,19.6235183 10.8559505,19.54 11.9,19.54 L12.08,19.54 C13.1286727,19.54 14.1313052,19.6231245 15.4306068,19.7865339 C17.0244624,19.9869886 17.2568322,20.0118649 17.1898017,20.0268327 C17.5569191,19.944769 17.8287805,19.6754485 17.985683,19.2384937 C18.0241348,18.6163693 17.6213929,17.97236 16.4649458,16.8111904 C16.3609193,16.7067391 15.9904003,16.3388274 15.9257864,16.2742136 L15.8183321,16.1578932 C15.5032107,15.7884405 15.2011536,15.4326476 14.6206512,14.7483234 L14.5792745,14.6995943 C14.0892611,14.1225692 13.7291352,13.7009183 13.3375135,13.2469329 C12.9967459,12.8469013 12.68696,12.6002152 12.4291916,12.5105137 C12.3851715,12.5061088 12.3195895,12.5027345 12.2284718,12.5011967 Z M19.95,19.66 C19.66,20.67 18.93,21.69 17.62,21.98 C16.89,22.12 14.56,21.54 12.08,21.54 L11.9,21.54 C9.42,21.54 7.09,22.13 6.36,21.98 C5.05,21.69 4.32,20.68 4.03,19.66 C3.73,17.63 5.34,16.18 6.65,14.87 C7.53,13.85 8.26,12.98 9.13,11.96 C9.6,11.42 10.18,10.88 10.88,10.64 C10.99,10.6 11.1,10.57 11.21,10.55 C11.47,10.5 11.74,10.5 12,10.5 C12.26,10.5 12.53,10.5 12.78,10.54 C12.89,10.56 13,10.59 13.11,10.63 C13.81,10.87 14.4,11.41 14.86,11.95 C15.74,12.97 16.47,13.84 17.34,14.86 C18.65,16.17 20.26,17.62 19.95,19.66 Z" id="Icon-Path" fill="#000000" fill-rule="nonzero"></path>
    </g>
</svg>